<mxfile host="app.diagrams.net" modified="2023-10-03T23:50:10.007Z" agent="Mozilla/5.0 (Windows NT 10.0; Win64; x64) AppleWebKit/537.36 (KHTML, like Gecko) Chrome/117.0.0.0 Safari/537.36" version="22.0.2" etag="NB7lB7rDTRSocnbToLto" type="github">
  <diagram name="Page-1" id="bGmr4w7oGCoF1R-VSD8c">
    <mxGraphModel>
      <root>
        <mxCell id="0" />
        <mxCell id="1" parent="0" />
      </root>
    </mxGraphModel>
  </diagram>
</mxfile>
